<svg width="294" height="199" viewBox="0 0 294 199" fill="none" xmlns="http://www.w3.org/2000/svg">
<path d="M140.787 16H132.868V14.896L137.052 10.2476C137.672 9.54476 138.098 8.97477 138.33 8.5376C138.568 8.09489 138.687 7.63835 138.687 7.16797C138.687 6.53711 138.496 6.01969 138.114 5.61572C137.733 5.21175 137.224 5.00977 136.587 5.00977C135.823 5.00977 135.229 5.22835 134.802 5.66553C134.382 6.09717 134.172 6.70036 134.172 7.4751H132.636C132.636 6.36279 132.993 5.46354 133.707 4.77734C134.426 4.09115 135.386 3.74805 136.587 3.74805C137.71 3.74805 138.599 4.04411 139.252 4.63623C139.905 5.22282 140.231 6.00586 140.231 6.98535C140.231 8.17513 139.473 9.5918 137.957 11.2354L134.719 14.7466H140.787V16ZM149.15 10.6875C148.829 11.0693 148.444 11.3765 147.996 11.6089C147.553 11.8413 147.066 11.9575 146.535 11.9575C145.837 11.9575 145.229 11.786 144.709 11.4429C144.194 11.0998 143.796 10.6183 143.513 9.99854C143.231 9.37321 143.09 8.68424 143.09 7.93164C143.09 7.1237 143.242 6.396 143.546 5.74854C143.856 5.10107 144.294 4.60579 144.858 4.2627C145.422 3.9196 146.081 3.74805 146.834 3.74805C148.029 3.74805 148.97 4.19629 149.656 5.09277C150.348 5.98372 150.693 7.20117 150.693 8.74512V9.19336C150.693 11.5452 150.229 13.2635 149.299 14.3481C148.369 15.4272 146.966 15.9806 145.09 16.0083H144.792V14.7134H145.115C146.383 14.6912 147.357 14.362 148.037 13.7256C148.718 13.0837 149.089 12.071 149.15 10.6875ZM146.784 10.6875C147.298 10.6875 147.772 10.5298 148.203 10.2144C148.64 9.89893 148.959 9.50879 149.158 9.04395V8.42969C149.158 7.42253 148.939 6.60352 148.502 5.97266C148.065 5.3418 147.511 5.02637 146.842 5.02637C146.167 5.02637 145.624 5.28646 145.215 5.80664C144.805 6.32129 144.601 7.00195 144.601 7.84863C144.601 8.67318 144.797 9.35384 145.19 9.89062C145.588 10.4219 146.12 10.6875 146.784 10.6875ZM161.463 4.77734L156.458 16H154.847L159.836 5.17578H153.295V3.91406H161.463V4.77734ZM169.385 13.9663L172.44 7.01855H174.357V16H172.822V9.46729L169.916 16H168.854L165.891 9.32617V16H164.355V7.01855H166.347L169.385 13.9663ZM182.852 13.9663L185.907 7.01855H187.825V16H186.289V9.46729L183.384 16H182.321L179.358 9.32617V16H177.822V7.01855H179.814L182.852 13.9663Z" fill="#262626"/>
<rect x="32.4" y="22.4" width="256.2" height="10.2" stroke="#ACACAC" stroke-width="0.8"/>
<rect x="32.4" y="22.4" width="256.2" height="10.2" stroke="#ACACAC" stroke-width="0.8"/>
<rect x="37" y="37" width="257" height="162" fill="#686868" fill-opacity="0.33"/>
<rect x="32" y="32" width="257" height="162" fill="#2DADD7"/>
<path d="M153.786 123.465H140.084L137.007 132H132.56L145.048 99.2969H148.822L161.332 132H156.908L153.786 123.465ZM141.387 119.916H152.505L146.935 104.62L141.387 119.916ZM184.499 121.017H189.036V124.408H184.499V132H180.321V124.408H165.429V121.96L180.074 99.2969H184.499V121.017ZM170.146 121.017H180.321V104.979L179.827 105.878L170.146 121.017Z" fill="white"/>
<path d="M16 133.213L16 141.132L14.896 141.132L10.2476 136.948C9.54476 136.328 8.97477 135.902 8.5376 135.67C8.09489 135.432 7.63835 135.313 7.16797 135.313C6.53711 135.313 6.01969 135.504 5.61572 135.886C5.21175 136.267 5.00977 136.776 5.00977 137.413C5.00977 138.177 5.22835 138.771 5.66553 139.198C6.09717 139.618 6.70036 139.828 7.4751 139.828L7.4751 141.364C6.36279 141.364 5.46354 141.007 4.77734 140.293C4.09115 139.574 3.74805 138.614 3.74805 137.413C3.74805 136.29 4.04411 135.401 4.63623 134.748C5.22282 134.095 6.00586 133.769 6.98535 133.769C8.17513 133.769 9.5918 134.527 11.2354 136.043L14.7466 139.281L14.7466 133.213L16 133.213ZM16 125.689L16 127.233L5.76514 127.233L6.90234 130.329L5.50781 130.329L3.85596 125.93L3.85596 125.689L16 125.689ZM10.8452 112.761C12.6437 112.761 13.9801 113.068 14.8545 113.683C15.7288 114.297 16.166 115.257 16.166 116.563C16.166 117.852 15.7399 118.807 14.8877 119.427C14.0299 120.047 12.7516 120.368 11.0527 120.39L9.00244 120.39C7.22607 120.39 5.90625 120.083 5.04297 119.468C4.17969 118.854 3.74805 117.891 3.74805 116.58C3.74805 115.279 4.16585 114.322 5.00146 113.708C5.83154 113.093 7.1154 112.778 8.85303 112.761L10.8452 112.761ZM8.74512 114.297C7.44466 114.297 6.49837 114.479 5.90625 114.845C5.30859 115.21 5.00976 115.788 5.00976 116.58C5.00976 117.365 5.30583 117.938 5.89795 118.298C6.49007 118.658 7.40039 118.843 8.62891 118.854L11.0859 118.854C12.3919 118.854 13.3576 118.666 13.9829 118.29C14.6027 117.908 14.9126 117.332 14.9126 116.563C14.9126 115.805 14.6193 115.243 14.0327 114.878C13.4461 114.507 12.522 114.313 11.2603 114.297L8.74512 114.297ZM13.9663 104.615L7.01855 101.56L7.01855 99.6427L16 99.6427L16 101.178L9.46728 101.178L16 104.084L16 105.146L9.32617 108.109L16 108.109L16 109.645L7.01855 109.645L7.01855 107.653L13.9663 104.615ZM13.9663 91.1477L7.01855 88.093L7.01855 86.1755L16 86.1755L16 87.7111L9.46728 87.7111L16 90.6164L16 91.6789L9.32617 94.6423L16 94.6423L16 96.1779L7.01855 96.1779L7.01855 94.1857L13.9663 91.1477Z" fill="#262626"/>
<rect x="22.4" y="193.6" width="161.2" height="10.2" transform="rotate(-90 22.4 193.6)" stroke="#ACACAC" stroke-width="0.8"/>
<rect x="22.4" y="193.6" width="161.2" height="10.2" transform="rotate(-90 22.4 193.6)" stroke="#ACACAC" stroke-width="0.8"/>
</svg>
