<svg width="271" height="184" viewBox="0 0 271 184" fill="none" xmlns="http://www.w3.org/2000/svg">
<path d="M126.787 16H118.868V14.896L123.052 10.2476C123.672 9.54476 124.098 8.97477 124.33 8.5376C124.568 8.09489 124.687 7.63835 124.687 7.16797C124.687 6.53711 124.496 6.01969 124.114 5.61572C123.733 5.21175 123.224 5.00977 122.587 5.00977C121.823 5.00977 121.229 5.22835 120.802 5.66553C120.382 6.09717 120.172 6.70036 120.172 7.4751H118.636C118.636 6.36279 118.993 5.46354 119.707 4.77734C120.426 4.09115 121.386 3.74805 122.587 3.74805C123.71 3.74805 124.599 4.04411 125.252 4.63623C125.905 5.22282 126.231 6.00586 126.231 6.98535C126.231 8.17513 125.473 9.5918 123.957 11.2354L120.719 14.7466H126.787V16ZM134.311 16H132.767V5.76514L129.671 6.90234V5.50781L134.07 3.85596H134.311V16ZM147.239 10.8452C147.239 12.6437 146.932 13.9801 146.317 14.8545C145.703 15.7288 144.743 16.166 143.437 16.166C142.148 16.166 141.193 15.7399 140.573 14.8877C139.953 14.0299 139.632 12.7516 139.61 11.0527V9.00244C139.61 7.22607 139.917 5.90625 140.532 5.04297C141.146 4.17969 142.109 3.74805 143.42 3.74805C144.721 3.74805 145.678 4.16585 146.292 5.00146C146.907 5.83154 147.222 7.1154 147.239 8.85303V10.8452ZM145.703 8.74512C145.703 7.44466 145.521 6.49837 145.155 5.90625C144.79 5.30859 144.212 5.00977 143.42 5.00977C142.635 5.00977 142.062 5.30583 141.702 5.89795C141.342 6.49007 141.157 7.40039 141.146 8.62891V11.0859C141.146 12.3919 141.334 13.3576 141.71 13.9829C142.092 14.6027 142.668 14.9126 143.437 14.9126C144.195 14.9126 144.757 14.6193 145.122 14.0327C145.493 13.4461 145.687 12.522 145.703 11.2603V8.74512ZM155.385 13.9663L158.44 7.01855H160.357V16H158.822V9.46729L155.916 16H154.854L151.891 9.32617V16H150.355V7.01855H152.347L155.385 13.9663ZM168.852 13.9663L171.907 7.01855H173.825V16H172.289V9.46729L169.384 16H168.321L165.358 9.32617V16H163.822V7.01855H165.814L168.852 13.9663Z" fill="#262626"/>
<path d="M16 128.085L16 129.629L5.76514 129.629L6.90234 132.725L5.50781 132.725L3.85596 128.325L3.85596 128.085L16 128.085ZM11.9409 116.253L11.9409 114.576L13.1943 114.576L13.1943 116.253L16 116.253L16 117.797L13.1943 117.797L13.1943 123.3L12.2896 123.3L3.91406 117.888L3.91406 116.253L11.9409 116.253ZM11.9409 121.557L11.9409 117.797L6.01416 117.797L6.34619 117.979L11.9409 121.557ZM7.06836 105.01C7.67155 105.01 8.20833 105.171 8.67871 105.492C9.14909 105.807 9.51709 106.236 9.78271 106.778C10.0539 106.147 10.4495 105.649 10.9697 105.284C11.4899 104.913 12.0793 104.728 12.7378 104.728C13.7837 104.728 14.6165 105.082 15.2363 105.791C15.8561 106.493 16.166 107.42 16.166 108.571C16.166 109.733 15.8561 110.666 15.2363 111.369C14.611 112.066 13.7782 112.415 12.7378 112.415C12.0848 112.415 11.4954 112.237 10.9697 111.883C10.444 111.524 10.0456 111.028 9.77441 110.397C9.50879 110.934 9.14079 111.358 8.67041 111.667C8.20003 111.977 7.66601 112.132 7.06836 112.132C6.05013 112.132 5.24219 111.806 4.64453 111.153C4.04687 110.5 3.74805 109.639 3.74805 108.571C3.74805 107.509 4.04687 106.651 4.64453 105.998C5.24219 105.34 6.05013 105.01 7.06836 105.01ZM12.7046 106.264C12.0295 106.264 11.4788 106.479 11.0527 106.911C10.6266 107.337 10.4136 107.896 10.4136 108.588C10.4136 109.28 10.6239 109.836 11.0444 110.256C11.465 110.671 12.0184 110.879 12.7046 110.879C13.3908 110.879 13.9303 110.677 14.3232 110.273C14.7161 109.863 14.9126 109.296 14.9126 108.571C14.9126 107.852 14.7161 107.287 14.3232 106.878C13.9248 106.468 13.3853 106.264 12.7046 106.264ZM5.00976 108.571C5.00976 109.174 5.19792 109.664 5.57422 110.041C5.94499 110.411 6.45133 110.597 7.09326 110.597C7.70752 110.597 8.20557 110.414 8.5874 110.049C8.9637 109.678 9.15185 109.186 9.15185 108.571C9.15185 107.957 8.9637 107.467 8.5874 107.102C8.20557 106.731 7.70752 106.546 7.09326 106.546C6.479 106.546 5.97819 106.737 5.59082 107.119C5.20345 107.5 5.00976 107.985 5.00976 108.571ZM13.9663 96.6148L7.01855 93.5602L7.01855 91.6427L16 91.6427L16 93.1783L9.46728 93.1783L16 96.0836L16 97.1461L9.32617 100.109L16 100.109L16 101.645L7.01855 101.645L7.01855 99.6529L13.9663 96.6148ZM13.9663 83.1477L7.01855 80.093L7.01855 78.1755L16 78.1755L16 79.7111L9.46728 79.7111L16 82.6164L16 83.6789L9.32617 86.6423L16 86.6423L16 88.1779L7.01855 88.1779L7.01855 86.1857L13.9663 83.1477Z" fill="#262626"/>
<rect x="22.4" y="179.024" width="147.471" height="9.2678" transform="rotate(-90 22.4 179.024)" stroke="#ACACAC" stroke-width="0.8"/>
<rect x="22.4" y="179.024" width="147.471" height="9.2678" transform="rotate(-90 22.4 179.024)" stroke="#ACACAC" stroke-width="0.8"/>
<rect x="31.5523" y="22.4" width="234.42" height="9.2678" stroke="#ACACAC" stroke-width="0.8"/>
<rect x="31.5523" y="22.4" width="234.42" height="9.2678" stroke="#ACACAC" stroke-width="0.8"/>
<rect x="35.729" y="35.7288" width="235.22" height="148.271" fill="#686868" fill-opacity="0.33"/>
<rect x="31" y="31" width="235.22" height="148.271" fill="#2DADD7"/>
<path d="M141.65 117.465H127.949L124.872 126H120.424L132.913 93.2969H136.686L149.197 126H144.772L141.65 117.465ZM129.252 113.916H140.37L134.799 98.6201L129.252 113.916ZM156.73 109.604L158.392 93.2969H175.148V97.1377H161.919L160.93 106.055C162.533 105.111 164.352 104.64 166.388 104.64C169.368 104.64 171.734 105.628 173.486 107.604C175.238 109.566 176.114 112.224 176.114 115.578C176.114 118.947 175.201 121.605 173.374 123.552C171.562 125.483 169.024 126.449 165.76 126.449C162.87 126.449 160.511 125.648 158.684 124.046C156.858 122.444 155.817 120.228 155.562 117.397H159.493C159.747 119.269 160.414 120.684 161.492 121.643C162.57 122.586 163.993 123.058 165.76 123.058C167.691 123.058 169.204 122.399 170.297 121.081C171.405 119.763 171.959 117.944 171.959 115.623C171.959 113.437 171.36 111.685 170.162 110.367C168.979 109.035 167.399 108.368 165.423 108.368C163.611 108.368 162.188 108.765 161.155 109.559L160.054 110.457L156.73 109.604Z" fill="white"/>
</svg>
