<svg width="170" height="213" viewBox="0 0 170 213" fill="none" xmlns="http://www.w3.org/2000/svg">
<path d="M15 129.256L15 130.709L5.36719 130.709L6.4375 133.623L5.125 133.623L3.57031 129.483L3.57031 129.256L15 129.256ZM11.1797 118.12L11.1797 116.542L12.3594 116.542L12.3594 118.12L15 118.12L15 119.573L12.3594 119.573L12.3594 124.753L11.5078 124.753L3.625 119.659L3.625 118.12L11.1797 118.12ZM11.1797 123.113L11.1797 119.573L5.60156 119.573L5.91406 119.745L11.1797 123.113ZM6.59375 107.539C7.16146 107.539 7.66667 107.69 8.10937 107.992C8.55208 108.289 8.89844 108.693 9.14844 109.203C9.40364 108.609 9.77604 108.141 10.2656 107.797C10.7552 107.448 11.3099 107.273 11.9297 107.273C12.9141 107.273 13.6979 107.607 14.2812 108.273C14.8646 108.935 15.1562 109.807 15.1562 110.891C15.1562 111.984 14.8646 112.862 14.2812 113.523C13.6927 114.18 12.9089 114.508 11.9297 114.508C11.3151 114.508 10.7604 114.341 10.2656 114.008C9.77083 113.669 9.39583 113.203 9.14062 112.609C8.89062 113.115 8.54427 113.513 8.10156 113.805C7.65885 114.096 7.15625 114.242 6.59375 114.242C5.63542 114.242 4.875 113.935 4.3125 113.32C3.75 112.706 3.46875 111.896 3.46875 110.891C3.46875 109.891 3.75 109.083 4.3125 108.469C4.875 107.849 5.63542 107.539 6.59375 107.539ZM11.8984 108.719C11.263 108.719 10.7448 108.922 10.3437 109.328C9.94271 109.729 9.74219 110.255 9.74219 110.906C9.74219 111.557 9.9401 112.081 10.3359 112.477C10.7318 112.867 11.2526 113.063 11.8984 113.063C12.5443 113.063 13.0521 112.872 13.4219 112.492C13.7917 112.107 13.9766 111.573 13.9766 110.891C13.9766 110.214 13.7917 109.682 13.4219 109.297C13.0469 108.912 12.5391 108.719 11.8984 108.719ZM4.65625 110.891C4.65625 111.458 4.83333 111.919 5.1875 112.273C5.53646 112.622 6.01302 112.797 6.61719 112.797C7.19531 112.797 7.66406 112.625 8.02344 112.281C8.3776 111.932 8.55469 111.469 8.55469 110.891C8.55469 110.313 8.3776 109.852 8.02344 109.508C7.66406 109.159 7.19531 108.984 6.61719 108.984C6.03906 108.984 5.56771 109.164 5.20312 109.523C4.83854 109.883 4.65625 110.339 4.65625 110.891ZM13.0859 99.6376L6.54687 96.7626L6.54687 94.9579L15 94.9579L15 96.4032L8.85156 96.4032L15 99.1376L15 100.138L8.71875 102.927L15 102.927L15 104.372L6.54687 104.372L6.54687 102.497L13.0859 99.6376ZM13.0859 86.9626L6.54687 84.0876L6.54687 82.2829L15 82.2829L15 83.7282L8.85156 83.7282L15 86.4626L15 87.4626L8.71875 90.2516L15 90.2516L15 91.6969L6.54687 91.6969L6.54687 89.8219L13.0859 86.9626Z" fill="#262626"/>
<path d="M75.7437 15H74.2906V5.36719L71.3766 6.4375V5.125L75.5172 3.57031H75.7437V15ZM87.9109 10.1484C87.9109 11.8411 87.6219 13.099 87.0437 13.9219C86.4656 14.7448 85.562 15.1562 84.3328 15.1562C83.1193 15.1562 82.2208 14.7552 81.6375 13.9531C81.0542 13.1458 80.7521 11.9427 80.7312 10.3438V8.41406C80.7312 6.74219 81.0203 5.5 81.5984 4.6875C82.1766 3.875 83.0828 3.46875 84.3172 3.46875C85.5411 3.46875 86.4422 3.86198 87.0203 4.64844C87.5984 5.42969 87.8953 6.63802 87.9109 8.27344V10.1484ZM86.4656 8.17188C86.4656 6.94792 86.2937 6.05729 85.95 5.5C85.6062 4.9375 85.062 4.65625 84.3172 4.65625C83.5776 4.65625 83.0385 4.9349 82.7 5.49219C82.3615 6.04948 82.187 6.90625 82.1766 8.0625V10.375C82.1766 11.6042 82.3536 12.513 82.7078 13.1016C83.0672 13.6849 83.6089 13.9766 84.3328 13.9766C85.0464 13.9766 85.575 13.7005 85.9187 13.1484C86.2677 12.5964 86.45 11.7266 86.4656 10.5391V8.17188ZM91.2266 9.29688L91.8047 3.625H97.6328V4.96094H93.0312L92.6875 8.0625C93.2448 7.73438 93.8776 7.57031 94.5859 7.57031C95.6224 7.57031 96.4453 7.91406 97.0547 8.60156C97.6641 9.28385 97.9688 10.2083 97.9688 11.375C97.9688 12.5469 97.651 13.4714 97.0156 14.1484C96.3854 14.8203 95.5026 15.1562 94.3672 15.1562C93.362 15.1562 92.5417 14.8776 91.9062 14.3203C91.2708 13.763 90.9089 12.9922 90.8203 12.0078H92.1875C92.276 12.6589 92.5078 13.151 92.8828 13.4844C93.2578 13.8125 93.7526 13.9766 94.3672 13.9766C95.0391 13.9766 95.5651 13.7474 95.9453 13.2891C96.3307 12.8307 96.5234 12.1979 96.5234 11.3906C96.5234 10.6302 96.3151 10.0208 95.8984 9.5625C95.487 9.09896 94.9375 8.86719 94.25 8.86719C93.6198 8.86719 93.125 9.00521 92.7656 9.28125L92.3828 9.59375L91.2266 9.29688ZM105.362 13.0859L108.237 6.54688H110.042V15H108.597V8.85156L105.862 15H104.862L102.073 8.71875V15H100.628V6.54688H102.503L105.362 13.0859ZM118.037 13.0859L120.912 6.54688H122.717V15H121.272V8.85156L118.537 15H117.537L114.748 8.71875V15H113.303V6.54688H115.178L118.037 13.0859Z" fill="#262626"/>
<rect x="29.1622" y="20.8254" width="135.852" height="7.45414" stroke="#ACACAC" stroke-width="0.8"/>
<rect x="29.1622" y="20.8254" width="135.852" height="7.45414" stroke="#ACACAC" stroke-width="0.8"/>
<rect x="21.8253" y="207.119" width="178.957" height="7.45415" transform="rotate(-90 21.8253 207.119)" stroke="#ACACAC" stroke-width="0.8"/>
<rect x="21.8253" y="207.119" width="178.957" height="7.45415" transform="rotate(-90 21.8253 207.119)" stroke="#ACACAC" stroke-width="0.8"/>
<rect x="170" y="32.3481" width="179.757" height="129.315" transform="rotate(90 170 32.3481)" fill="#686868" fill-opacity="0.33"/>
<rect x="166" y="27.7625" width="179.757" height="136.652" transform="rotate(90 166 27.7625)" fill="#2DADD7"/>
<path d="M90.2855 128.465H76.5844L73.5072 137H69.06L81.5482 104.297H85.3217L97.8324 137H93.4076L90.2855 128.465ZM77.8871 124.916H89.0053L83.435 109.62L77.8871 124.916ZM119.763 104.274V107.801H119C115.765 107.861 113.19 108.819 111.273 110.676C109.356 112.533 108.248 115.146 107.949 118.515C109.671 116.538 112.022 115.55 115.002 115.55C117.847 115.55 120.115 116.553 121.807 118.56C123.514 120.566 124.368 123.157 124.368 126.331C124.368 129.7 123.447 132.396 121.605 134.417C119.778 136.439 117.323 137.449 114.238 137.449C111.108 137.449 108.57 136.251 106.624 133.856C104.677 131.445 103.704 128.345 103.704 124.557V122.962C103.704 116.942 104.984 112.345 107.545 109.171C110.12 105.982 113.946 104.349 119.022 104.274H119.763ZM114.305 119.009C112.883 119.009 111.573 119.436 110.375 120.289C109.177 121.143 108.346 122.213 107.881 123.501V125.028C107.881 127.724 108.488 129.895 109.701 131.542C110.914 133.189 112.426 134.013 114.238 134.013C116.11 134.013 117.577 133.324 118.64 131.946C119.718 130.569 120.257 128.764 120.257 126.533C120.257 124.287 119.711 122.475 118.618 121.098C117.54 119.705 116.102 119.009 114.305 119.009Z" fill="white"/>
</svg>
