<svg width="214" height="171" viewBox="0 0 214 171" fill="none" xmlns="http://www.w3.org/2000/svg">
<path d="M97.7437 15.0525H96.2906V5.41968L93.3766 6.48999V5.17749L97.5172 3.6228H97.7437V15.0525ZM109.911 10.2009C109.911 11.8936 109.622 13.1514 109.044 13.9744C108.466 14.7973 107.562 15.2087 106.333 15.2087C105.119 15.2087 104.221 14.8077 103.637 14.0056C103.054 13.1983 102.752 11.9952 102.731 10.3962V8.46655C102.731 6.79468 103.02 5.55249 103.598 4.73999C104.177 3.92749 105.083 3.52124 106.317 3.52124C107.541 3.52124 108.442 3.91447 109.02 4.70093C109.598 5.48218 109.895 6.69051 109.911 8.32593V10.2009ZM108.466 8.22437C108.466 7.00041 108.294 6.10978 107.95 5.55249C107.606 4.98999 107.062 4.70874 106.317 4.70874C105.578 4.70874 105.039 4.98739 104.7 5.54468C104.361 6.10197 104.187 6.95874 104.177 8.11499V10.4275C104.177 11.6567 104.354 12.5655 104.708 13.1541C105.067 13.7374 105.609 14.0291 106.333 14.0291C107.046 14.0291 107.575 13.753 107.919 13.2009C108.268 12.6488 108.45 11.7791 108.466 10.5916V8.22437ZM113.227 9.34937L113.805 3.67749H119.633V5.01343H115.031L114.688 8.11499C115.245 7.78687 115.878 7.6228 116.586 7.6228C117.622 7.6228 118.445 7.96655 119.055 8.65405C119.664 9.33634 119.969 10.2608 119.969 11.4275C119.969 12.5994 119.651 13.5238 119.016 14.2009C118.385 14.8728 117.503 15.2087 116.367 15.2087C115.362 15.2087 114.542 14.9301 113.906 14.3728C113.271 13.8155 112.909 13.0447 112.82 12.0603H114.188C114.276 12.7113 114.508 13.2035 114.883 13.5369C115.258 13.865 115.753 14.0291 116.367 14.0291C117.039 14.0291 117.565 13.7999 117.945 13.3416C118.331 12.8832 118.523 12.2504 118.523 11.4431C118.523 10.6827 118.315 10.0733 117.898 9.61499C117.487 9.15145 116.938 8.91968 116.25 8.91968C115.62 8.91968 115.125 9.0577 114.766 9.33374L114.383 9.64624L113.227 9.34937ZM127.362 13.1384L130.237 6.59937H132.042V15.0525H130.597V8.90405L127.862 15.0525H126.862L124.073 8.77124V15.0525H122.628V6.59937H124.503L127.362 13.1384ZM140.037 13.1384L142.912 6.59937H144.717V15.0525H143.272V8.90405L140.537 15.0525H139.537L136.748 8.77124V15.0525H135.303V6.59937H137.178L140.037 13.1384Z" fill="#262626"/>
<path d="M5.38477 110.823L15.9473 115.534L15.9473 117.049L5.75977 112.354L5.75977 118.51L4.57227 118.51L4.57227 110.823L5.38477 110.823ZM12.127 102.281L12.127 100.702L13.3066 100.702L13.3066 102.281L15.9473 102.281L15.9473 103.734L13.3066 103.734L13.3066 108.913L12.4551 108.913L4.57227 103.82L4.57227 102.281L12.127 102.281ZM12.127 107.273L12.127 103.734L6.54883 103.734L6.86133 103.906L12.127 107.273ZM14.0332 93.5822L7.49414 90.7072L7.49414 88.9025L15.9473 88.9025L15.9473 90.3478L9.79883 90.3478L15.9473 93.0822L15.9473 94.0822L9.66602 96.8712L15.9473 96.8712L15.9473 98.3166L7.49414 98.3166L7.49414 96.4416L14.0332 93.5822ZM14.0332 80.9072L7.49414 78.0322L7.49414 76.2275L15.9473 76.2275L15.9473 77.6728L9.79883 77.6728L15.9473 80.4072L15.9473 81.4072L9.66602 84.1962L15.9473 84.1962L15.9473 85.6416L7.49414 85.6416L7.49414 83.7666L14.0332 80.9072Z" fill="#262626"/>
<rect x="0.4" y="0.4" width="135.852" height="7.45414" transform="matrix(4.37114e-08 1 1 -4.37114e-08 21.3726 28.8147)" stroke="#ACACAC" stroke-width="0.8"/>
<rect x="0.4" y="0.4" width="135.852" height="7.45414" transform="matrix(4.37114e-08 1 1 -4.37114e-08 21.3726 28.8147)" stroke="#ACACAC" stroke-width="0.8"/>
<rect x="-0.4" y="0.4" width="178.957" height="7.45415" transform="matrix(-1 0 0 1 207.666 21.4778)" stroke="#ACACAC" stroke-width="0.8"/>
<rect x="-0.4" y="0.4" width="178.957" height="7.45415" transform="matrix(-1 0 0 1 207.666 21.4778)" stroke="#ACACAC" stroke-width="0.8"/>
<rect width="179.757" height="129.315" transform="matrix(1 -9.35861e-08 -8.20211e-08 -1 33.2954 170.052)" fill="#686868" fill-opacity="0.33"/>
<rect width="179.757" height="136.652" transform="matrix(1 -9.35861e-08 -8.20211e-08 -1 29 165.704)" fill="#2DADD7"/>
<path d="M111.233 108.517L97.5316 108.517L94.4545 117.052L90.0072 117.052L102.496 84.3494L106.269 84.3494L118.78 117.052L114.355 117.052L111.233 108.517ZM98.8344 104.969L109.953 104.969L104.382 89.6726L98.8344 104.969ZM145.517 86.6853L131.973 117.052L127.616 117.052L141.115 87.7634L123.416 87.7634L123.416 84.3494L145.517 84.3494L145.517 86.6853Z" fill="white"/>
</svg>
