<svg width="33" height="33" viewBox="0 0 33 33" fill="none" xmlns="http://www.w3.org/2000/svg">
<path d="M21.875 16.6691L33.0001 23.7022V9.33899L21.875 16.6691Z" fill="white"/>
<path d="M0 9.33899V23.7022L11.1251 16.6691L0 9.33899Z" fill="white"/>
<path d="M30.9376 5.15625H2.06264C1.03345 5.15625 0.216699 5.9235 0.0620117 6.91144L16.5001 17.7416L32.9383 6.91144C32.7836 5.9235 31.9668 5.15625 30.9376 5.15625Z" fill="white"/>
<path d="M19.9855 17.9149L17.0671 19.8372C16.8939 19.9506 16.6979 20.0063 16.4999 20.0063C16.3019 20.0063 16.106 19.9506 15.9327 19.8372L13.0143 17.9128L0.065918 26.103C0.22473 27.0827 1.03736 27.8438 2.06242 27.8438H30.9374C31.9625 27.8438 32.7751 27.0827 32.9339 26.103L19.9855 17.9149Z" fill="white"/>
</svg>
