<svg width="2552" height="2552" viewBox="0 0 2552 2552" fill="none" xmlns="http://www.w3.org/2000/svg">
<rect width="2552" height="2552" rx="1276" fill="white"/>
<path d="M1335.89 765H238V1787H1335.89V765Z" fill="#2AACD6"/>
<path d="M321.297 1112.28V1214.68H287.612V953.112H381.825C409.778 953.112 431.65 960.418 447.441 975.029C463.348 989.64 471.3 1008.98 471.3 1033.06C471.3 1058.44 463.524 1078.03 447.967 1091.8C432.528 1105.45 410.364 1112.28 381.474 1112.28H321.297ZM321.297 1084.08H381.825C399.837 1084.08 413.638 1079.76 423.229 1071.14C432.82 1062.4 437.616 1049.82 437.616 1033.41C437.616 1017.84 432.82 1005.39 423.229 996.048C413.638 986.707 400.48 981.856 383.754 981.497H321.297V1084.08ZM625.937 1108.87H565.934V1214.68H532.074V953.112H616.639C645.411 953.112 667.516 959.819 682.955 973.233C698.511 986.647 706.29 1006.17 706.29 1031.8C706.29 1048.09 701.962 1062.28 693.307 1074.37C684.768 1086.47 672.838 1095.51 657.516 1101.5L717.518 1212.52V1214.68H681.376L625.937 1108.87ZM565.934 1080.66H617.691C634.416 1080.66 647.691 1076.23 657.516 1067.37C667.459 1058.51 672.429 1046.65 672.429 1031.8C672.429 1015.63 667.692 1003.23 658.219 994.611C648.861 985.987 635.293 981.617 617.515 981.497H565.934V1080.66ZM968.121 1092.34C968.121 1117.97 963.912 1140.37 955.488 1159.53C947.069 1178.57 935.135 1193.12 919.7 1203.18C904.261 1213.24 886.25 1218.27 865.662 1218.27C845.543 1218.27 827.71 1213.24 812.15 1203.18C796.596 1193 784.489 1178.57 775.836 1159.89C767.297 1141.08 762.91 1119.35 762.675 1094.67V1075.81C762.675 1050.66 766.947 1028.45 775.486 1009.16C784.02 989.881 796.069 975.148 811.623 964.968C827.297 954.669 845.194 949.519 865.312 949.519C885.78 949.519 903.791 954.609 919.346 964.789C935.02 974.85 947.069 989.521 955.488 1008.8C963.912 1027.96 968.121 1050.3 968.121 1075.81V1092.34ZM934.613 1075.45C934.613 1044.43 928.531 1020.66 916.367 1004.13C904.198 987.485 887.183 979.16 865.312 979.16C844.025 979.16 827.24 987.485 814.956 1004.13C802.792 1020.66 796.538 1043.65 796.189 1073.12V1092.34C796.189 1122.4 802.328 1146.05 814.607 1163.3C827.005 1180.43 844.025 1188.99 865.662 1188.99C887.418 1188.99 904.261 1180.91 916.19 1164.74C928.119 1148.45 934.258 1125.15 934.613 1094.85V1075.45ZM1080.13 953.112L1163.64 1166.53L1247.15 953.112H1290.83V1214.68H1257.14V1112.82L1260.31 1002.87L1176.44 1214.68H1150.65L1066.97 1003.41L1070.3 1112.82V1214.68H1036.61V953.112H1080.13ZM484.108 1521.58C484.108 1547.21 479.898 1569.61 471.476 1588.77C463.054 1607.81 451.126 1622.36 435.686 1632.42C420.247 1642.48 402.234 1647.51 381.649 1647.51C361.532 1647.51 343.695 1642.48 328.139 1632.42C312.583 1622.24 300.478 1607.81 291.822 1589.13C283.284 1570.33 278.898 1548.59 278.664 1523.91V1505.05C278.664 1479.9 282.933 1457.69 291.471 1438.4C300.01 1419.12 312.057 1404.39 327.613 1394.21C343.285 1383.91 361.181 1378.76 381.298 1378.76C401.766 1378.76 419.779 1383.85 435.335 1394.03C451.008 1404.09 463.054 1418.76 471.476 1438.04C479.898 1457.21 484.108 1479.54 484.108 1505.05V1521.58ZM450.598 1504.69C450.598 1473.67 444.516 1449.9 432.353 1433.37C420.188 1416.72 403.17 1408.4 381.298 1408.4C360.011 1408.4 343.227 1416.72 330.946 1433.37C318.782 1449.9 312.525 1472.9 312.174 1502.36V1521.58C312.174 1551.64 318.314 1575.29 330.595 1592.54C342.993 1609.67 360.011 1618.23 381.649 1618.23C403.404 1618.23 420.247 1610.15 432.177 1593.98C444.107 1577.69 450.247 1554.4 450.598 1524.1V1504.69ZM627.867 1527.33C598.977 1518.82 577.923 1508.41 564.707 1496.07C551.606 1483.61 545.056 1468.28 545.056 1450.08C545.056 1429.48 553.069 1412.47 569.092 1399.06C585.233 1385.53 606.169 1378.76 631.901 1378.76C649.445 1378.76 665.06 1382.23 678.745 1389.18C692.546 1396.13 703.19 1405.71 710.675 1417.92C718.279 1430.14 722.08 1443.49 722.08 1457.98H688.219C688.219 1442.17 683.306 1429.78 673.481 1420.8C663.656 1411.7 649.797 1407.14 631.901 1407.14C615.293 1407.14 602.31 1410.91 592.953 1418.46C583.712 1425.88 579.093 1436.25 579.093 1449.54C579.093 1460.2 583.479 1469.24 592.251 1476.67C601.141 1483.97 616.17 1490.68 637.341 1496.79C658.628 1502.89 675.236 1509.66 687.167 1517.09C699.214 1524.39 708.102 1532.95 713.834 1542.78C719.682 1552.6 722.607 1564.16 722.607 1577.45C722.607 1598.65 714.536 1615.65 698.395 1628.47C682.254 1641.17 660.674 1647.51 633.656 1647.51C616.112 1647.51 599.737 1644.1 584.533 1637.27C569.326 1630.33 557.572 1620.87 549.268 1608.89C541.08 1596.91 536.986 1583.32 536.986 1568.11H570.847C570.847 1583.92 576.52 1596.43 587.866 1605.65C599.328 1614.76 614.59 1619.31 633.656 1619.31C651.434 1619.31 665.06 1615.6 674.533 1608.17C684.009 1600.75 688.746 1590.62 688.746 1577.81C688.746 1565 684.358 1555.12 675.587 1548.16C666.814 1541.1 650.908 1534.15 627.867 1527.33ZM980.228 1643.92H946.365V1523.02H817.59V1643.92H783.905V1382.35H817.59V1494.81H946.365V1382.35H980.228V1643.92Z" fill="white"/>
<path d="M1564.77 1092.34C1564.77 1117.97 1560.56 1140.37 1552.13 1159.53C1543.72 1178.57 1531.79 1193.12 1516.35 1203.18C1500.91 1213.24 1482.9 1218.27 1462.31 1218.27C1442.19 1218.27 1424.36 1213.24 1408.8 1203.18C1393.24 1193 1381.14 1178.57 1372.48 1159.89C1363.94 1141.08 1359.56 1119.35 1359.32 1094.67V1075.81C1359.32 1050.66 1363.59 1028.45 1372.13 1009.16C1380.67 989.881 1392.72 975.148 1408.28 964.968C1423.94 954.669 1441.84 949.519 1461.96 949.519C1482.43 949.519 1500.44 954.609 1516 964.789C1531.67 974.85 1543.72 989.521 1552.13 1008.8C1560.56 1027.96 1564.77 1050.3 1564.77 1075.81V1092.34ZM1531.26 1075.45C1531.26 1044.43 1525.18 1020.66 1513.01 1004.13C1500.85 987.485 1483.83 979.16 1461.96 979.16C1440.67 979.16 1423.89 987.485 1411.61 1004.13C1399.44 1020.66 1393.19 1043.65 1392.84 1073.12V1092.34C1392.84 1122.4 1398.97 1146.05 1411.25 1163.3C1423.65 1180.43 1440.67 1188.99 1462.31 1188.99C1484.06 1188.99 1500.91 1180.91 1512.84 1164.74C1524.77 1148.45 1530.91 1125.15 1531.26 1094.85V1075.45ZM1804.84 981.497H1722.74V1214.68H1689.23V981.497H1607.29V953.112H1804.84V981.497ZM2005.09 1093.78H1894.39V1186.48H2022.99V1214.68H1860.71V953.112H2021.24V981.497H1894.39V1065.57H2005.09V1093.78ZM2176.57 1108.87H2116.57V1214.68H2082.71V953.112H2167.28C2196.05 953.112 2218.16 959.819 2233.59 973.233C2249.14 986.647 2256.93 1006.17 2256.93 1031.8C2256.93 1048.09 2252.6 1062.28 2243.94 1074.37C2235.41 1086.47 2223.48 1095.51 2208.16 1101.5L2268.15 1212.52V1214.68H2232.01L2176.57 1108.87ZM2116.57 1080.66H2168.33C2185.05 1080.66 2198.33 1076.23 2208.16 1067.37C2218.1 1058.51 2223.06 1046.65 2223.06 1031.8C2223.06 1015.63 2218.33 1003.23 2208.85 994.611C2199.5 985.987 2185.93 981.617 2168.15 981.497H2116.57V1080.66Z" fill="#232323"/>
</svg>
