<svg width="104" height="50" viewBox="0 0 104 50" fill="none" xmlns="http://www.w3.org/2000/svg">
<rect width="55" height="50" fill="#35A3E1"/>
<path d="M4.17285 16.9902V22H2.48535V9.20312H7.20508C8.60547 9.20312 9.70117 9.56055 10.4922 10.2754C11.2891 10.9902 11.6875 11.9365 11.6875 13.1143C11.6875 14.3564 11.2979 15.3145 10.5186 15.9883C9.74512 16.6562 8.63477 16.9902 7.1875 16.9902H4.17285ZM4.17285 15.6104H7.20508C8.10742 15.6104 8.79883 15.3994 9.2793 14.9775C9.75977 14.5498 10 13.9346 10 13.1318C10 12.3701 9.75977 11.7607 9.2793 11.3037C8.79883 10.8467 8.13965 10.6094 7.30176 10.5918H4.17285V15.6104ZM19.4342 16.8232H16.4283V22H14.732V9.20312H18.9684C20.4098 9.20312 21.5172 9.53125 22.2906 10.1875C23.0699 10.8438 23.4596 11.7988 23.4596 13.0527C23.4596 13.8496 23.2428 14.5439 22.8092 15.1357C22.3814 15.7275 21.7838 16.1699 21.0162 16.4629L24.0221 21.8945V22H22.2115L19.4342 16.8232ZM16.4283 15.4434H19.0211C19.859 15.4434 20.524 15.2266 21.0162 14.793C21.5143 14.3594 21.7633 13.7793 21.7633 13.0527C21.7633 12.2617 21.526 11.6553 21.0514 11.2334C20.5826 10.8115 19.9029 10.5977 19.0123 10.5918H16.4283V15.4434ZM36.5764 16.0146C36.5764 17.2686 36.3654 18.3643 35.9436 19.3018C35.5217 20.2334 34.924 20.9453 34.1506 21.4375C33.3771 21.9297 32.4748 22.1758 31.4436 22.1758C30.4357 22.1758 29.5422 21.9297 28.7629 21.4375C27.9836 20.9395 27.3771 20.2334 26.9436 19.3193C26.5158 18.3994 26.2961 17.3359 26.2844 16.1289V15.2061C26.2844 13.9756 26.4982 12.8887 26.926 11.9453C27.3537 11.002 27.9572 10.2812 28.7365 9.7832C29.5217 9.2793 30.4182 9.02734 31.426 9.02734C32.4514 9.02734 33.3537 9.27637 34.133 9.77441C34.9182 10.2666 35.5217 10.9844 35.9436 11.9277C36.3654 12.8652 36.5764 13.958 36.5764 15.2061V16.0146ZM34.8977 15.1885C34.8977 13.6709 34.593 12.5078 33.9836 11.6992C33.3742 10.8848 32.5217 10.4775 31.426 10.4775C30.3596 10.4775 29.5187 10.8848 28.9035 11.6992C28.2941 12.5078 27.9807 13.6328 27.9631 15.0742V16.0146C27.9631 17.4854 28.2707 18.6426 28.8859 19.4863C29.507 20.3242 30.3596 20.7432 31.4436 20.7432C32.5334 20.7432 33.3771 20.3477 33.9748 19.5566C34.5725 18.7598 34.8801 17.6201 34.8977 16.1377V15.1885ZM42.1873 9.20312L46.3709 19.6445L50.5545 9.20312H52.743V22H51.0555V17.0166L51.2137 11.6377L47.0125 22H45.7205L41.5281 11.6641L41.6951 17.0166V22H40.0076V9.20312H42.1873ZM66.4662 16.0146C66.4662 17.2686 66.2553 18.3643 65.8334 19.3018C65.4115 20.2334 64.8139 20.9453 64.0404 21.4375C63.267 21.9297 62.3646 22.1758 61.3334 22.1758C60.3256 22.1758 59.432 21.9297 58.6527 21.4375C57.8734 20.9395 57.267 20.2334 56.8334 19.3193C56.4057 18.3994 56.1859 17.3359 56.1742 16.1289V15.2061C56.1742 13.9756 56.3881 12.8887 56.8158 11.9453C57.2436 11.002 57.8471 10.2812 58.6264 9.7832C59.4115 9.2793 60.308 9.02734 61.3158 9.02734C62.3412 9.02734 63.2436 9.27637 64.0229 9.77441C64.808 10.2666 65.4115 10.9844 65.8334 11.9277C66.2553 12.8652 66.4662 13.958 66.4662 15.2061V16.0146ZM64.7875 15.1885C64.7875 13.6709 64.4828 12.5078 63.8734 11.6992C63.2641 10.8848 62.4115 10.4775 61.3158 10.4775C60.2494 10.4775 59.4086 10.8848 58.7934 11.6992C58.184 12.5078 57.8705 13.6328 57.8529 15.0742V16.0146C57.8529 17.4854 58.1605 18.6426 58.7758 19.4863C59.3969 20.3242 60.2494 20.7432 61.3334 20.7432C62.4232 20.7432 63.267 20.3477 63.8646 19.5566C64.4623 18.7598 64.7699 17.6201 64.7875 16.1377V15.1885ZM78.4932 10.5918H74.3799V22H72.7012V10.5918H68.5967V9.20312H78.4932V10.5918ZM88.525 16.085H82.9791V20.6201H89.4215V22H81.2916V9.20312H89.3336V10.5918H82.9791V14.7051H88.525V16.085ZM97.1154 16.8232H94.1096V22H92.4133V9.20312H96.6496C98.091 9.20312 99.1984 9.53125 99.9719 10.1875C100.751 10.8438 101.141 11.7988 101.141 13.0527C101.141 13.8496 100.924 14.5439 100.49 15.1357C100.063 15.7275 99.465 16.1699 98.6975 16.4629L101.703 21.8945V22H99.8928L97.1154 16.8232ZM94.1096 15.4434H96.7023C97.5402 15.4434 98.2053 15.2266 98.6975 14.793C99.1955 14.3594 99.4445 13.7793 99.4445 13.0527C99.4445 12.2617 99.2072 11.6553 98.7326 11.2334C98.2639 10.8115 97.5842 10.5977 96.6936 10.5918H94.1096V15.4434ZM12.3291 37.0146C12.3291 38.2686 12.1182 39.3643 11.6963 40.3018C11.2744 41.2334 10.6768 41.9453 9.90332 42.4375C9.12988 42.9297 8.22754 43.1758 7.19629 43.1758C6.18848 43.1758 5.29492 42.9297 4.51562 42.4375C3.73633 41.9395 3.12988 41.2334 2.69629 40.3193C2.26855 39.3994 2.04883 38.3359 2.03711 37.1289V36.2061C2.03711 34.9756 2.25098 33.8887 2.67871 32.9453C3.10645 32.002 3.70996 31.2812 4.48926 30.7832C5.27441 30.2793 6.1709 30.0273 7.17871 30.0273C8.2041 30.0273 9.10645 30.2764 9.88574 30.7744C10.6709 31.2666 11.2744 31.9844 11.6963 32.9277C12.1182 33.8652 12.3291 34.958 12.3291 36.2061V37.0146ZM10.6504 36.1885C10.6504 34.6709 10.3457 33.5078 9.73633 32.6992C9.12695 31.8848 8.27441 31.4775 7.17871 31.4775C6.1123 31.4775 5.27148 31.8848 4.65625 32.6992C4.04688 33.5078 3.7334 34.6328 3.71582 36.0742V37.0146C3.71582 38.4854 4.02344 39.6426 4.63867 40.4863C5.25977 41.3242 6.1123 41.7432 7.19629 41.7432C8.28613 41.7432 9.12988 41.3477 9.72754 40.5566C10.3252 39.7598 10.6328 38.6201 10.6504 37.1377V36.1885ZM19.5309 37.2959C18.0836 36.8799 17.0289 36.3701 16.3668 35.7666C15.7105 35.1572 15.3824 34.4072 15.3824 33.5166C15.3824 32.5088 15.7838 31.6768 16.5865 31.0205C17.3951 30.3584 18.4439 30.0273 19.733 30.0273C20.6119 30.0273 21.3941 30.1973 22.0797 30.5371C22.7711 30.877 23.3043 31.3457 23.6793 31.9434C24.0602 32.541 24.2506 33.1943 24.2506 33.9033H22.5543C22.5543 33.1299 22.3082 32.5234 21.816 32.084C21.3238 31.6387 20.6295 31.416 19.733 31.416C18.901 31.416 18.2506 31.6006 17.7818 31.9697C17.3189 32.333 17.0875 32.8398 17.0875 33.4902C17.0875 34.0117 17.3072 34.4541 17.7467 34.8174C18.192 35.1748 18.9449 35.5029 20.0055 35.8018C21.0719 36.1006 21.9039 36.4316 22.5016 36.7949C23.1051 37.1523 23.5504 37.5713 23.8375 38.0518C24.1305 38.5322 24.277 39.0977 24.277 39.748C24.277 40.7852 23.8727 41.6172 23.0641 42.2441C22.2555 42.8652 21.1744 43.1758 19.8209 43.1758C18.942 43.1758 18.1217 43.0088 17.36 42.6748C16.5982 42.335 16.0094 41.8721 15.5934 41.2861C15.1832 40.7002 14.9781 40.0352 14.9781 39.291H16.6744C16.6744 40.0645 16.9586 40.6768 17.527 41.1279C18.1012 41.5732 18.8658 41.7959 19.8209 41.7959C20.7115 41.7959 21.3941 41.6143 21.8687 41.251C22.3434 40.8877 22.5807 40.3926 22.5807 39.7656C22.5807 39.1387 22.3609 38.6553 21.9215 38.3154C21.482 37.9697 20.6852 37.6299 19.5309 37.2959ZM37.1828 43H35.4865V37.085H29.0354V43H27.3479V30.2031H29.0354V35.7051H35.4865V30.2031H37.1828V43Z" fill="white"/>
</svg>
