<svg width="29" height="29" viewBox="0 0 29 29" fill="none" xmlns="http://www.w3.org/2000/svg">
<path d="M21.7221 22.1187C22.34 22.1182 22.843 21.6158 22.843 20.9973C22.843 20.3793 22.34 19.8763 21.7215 19.8763C21.1036 19.8763 20.6006 20.3793 20.6006 20.9973C20.6006 21.6161 21.1029 22.1176 21.7215 22.1187H21.7221Z" fill="white"/>
<path d="M21.722 23.818H21.7214C21.7214 23.818 21.7214 23.818 21.7208 23.818C20.2425 23.818 19.04 25.021 19.04 26.4999V28.4902C19.8923 28.8271 20.8 29 21.7214 29C22.6417 29 23.5501 28.8275 24.4033 28.4902V26.4999C24.4033 25.021 23.2003 23.818 21.722 23.818Z" fill="white"/>
<path d="M21.7217 14.4434C20.0183 14.4434 18.4498 15.0319 17.2083 16.016L12.9567 11.8365C12.9688 11.8214 12.9814 11.8067 12.9934 11.7914C13.8128 10.753 14.3485 9.49121 14.5071 8.12787H20.1703C20.5681 10.1798 22.3775 11.7342 24.5441 11.7342C27.0012 11.7342 29 9.73539 29 7.27832C29 4.82125 27.0012 2.8224 24.5441 2.8224C22.3776 2.8224 20.5683 4.37673 20.1704 6.42865H14.5068C14.0845 2.81408 11.0039 0 7.27832 0C3.26477 0 0 3.26477 0 7.27832C0 9.62381 1.11412 11.7529 2.89717 13.0953V12.0565C2.89717 10.4525 3.76434 9.04777 5.05348 8.28426C4.68078 7.80621 4.45762 7.20582 4.45762 6.55389C4.45762 4.99854 5.72297 3.73375 7.27832 3.73375C8.83367 3.73375 10.0985 4.99854 10.0985 6.55389C10.0985 7.20582 9.87586 7.80621 9.50316 8.28426C10.5063 8.87842 11.2539 9.86113 11.536 11.024C11.6869 11.6456 11.6589 12.0048 11.6589 13.0959L15.9994 17.2289C15.1904 18.257 14.6526 19.5077 14.4932 20.8721H8.82959C8.43181 18.8202 6.62242 17.2658 4.45586 17.2658C1.99885 17.2658 0 19.2646 0 21.7217C0 24.1788 1.99885 26.1776 4.45592 26.1776C6.62236 26.1776 8.43169 24.6233 8.82959 22.5713H14.4927C14.7261 24.5762 15.7755 26.361 17.3411 27.5392V26.4999C17.3411 24.8958 18.2077 23.4911 19.4968 22.7276C19.1241 22.2496 18.9015 21.6492 18.9015 20.9972C18.9015 19.4425 20.1663 18.1771 21.7217 18.1771C23.277 18.1771 24.5424 19.4425 24.5424 20.9972C24.5424 21.6492 24.3192 22.2496 23.9465 22.7276C25.2357 23.4911 26.1028 24.8958 26.1028 26.4999V27.5387C27.8859 26.1963 29 24.0672 29 21.7217C29 17.7087 25.7352 14.4434 21.7217 14.4434Z" fill="white"/>
<path d="M8.39914 6.5539C8.39914 5.93539 7.89617 5.43298 7.27822 5.43298C6.65971 5.43298 6.15674 5.93539 6.15674 6.5539C6.15674 7.17185 6.65971 7.67482 7.27822 7.67482C7.89617 7.67482 8.39914 7.17185 8.39914 6.5539Z" fill="white"/>
<path d="M4.59619 12.0565V14.0469C5.44852 14.3838 6.35686 14.5566 7.27812 14.5566C8.20442 14.5566 9.1126 14.3817 9.95949 14.0469V12.0565C9.95949 10.5776 8.75701 9.37402 7.27812 9.37402C5.79924 9.37402 4.59619 10.5776 4.59619 12.0565Z" fill="white"/>
</svg>
