<svg width="27" height="27" viewBox="0 0 27 27" fill="none" xmlns="http://www.w3.org/2000/svg">
<path d="M22.9881 3.92088C20.4517 1.39396 17.0775 0.00144196 13.4864 0C9.90335 0 6.52382 1.39128 3.97073 3.91759C1.41312 6.44822 0.0032959 9.81127 0 13.375V13.3791V13.3816C0.000411987 15.5385 0.567101 17.7144 1.6428 19.7006L0.0368729 27L7.4203 25.3205C9.29031 26.263 11.3768 26.7598 13.4813 26.7606H13.4866C17.069 26.7606 20.4486 25.3691 23.0021 22.8426C25.562 20.3099 26.9724 16.9512 26.974 13.3853C26.9751 9.84444 25.5597 6.48324 22.9881 3.92088V3.92088ZM13.4864 24.6533H13.4817C11.5921 24.6525 9.71981 24.1781 8.06754 23.281L7.71838 23.0915L2.80872 24.2082L3.87515 19.3615L3.66957 19.007C2.64743 17.2443 2.10732 15.2985 2.10732 13.3793C2.11123 7.16714 7.21534 2.10732 13.486 2.10732C16.5153 2.10855 19.3618 3.28292 21.5008 5.41372C23.6722 7.57748 24.8676 10.4082 24.8665 13.3846C24.8641 19.5982 19.7589 24.6533 13.4864 24.6533V24.6533Z" fill="white"/>
<path d="M9.8168 7.48105H9.22559C9.01981 7.48105 8.68568 7.55809 8.40306 7.86564C8.12023 8.17339 7.32324 8.91724 7.32324 10.4301C7.32324 11.9429 8.42881 13.4046 8.58289 13.61C8.73718 13.8151 10.717 17.0188 13.8526 18.2512C16.4587 19.2754 16.9891 19.0717 17.5545 19.0204C18.1202 18.9693 19.3799 18.2768 19.6369 17.5589C19.894 16.841 19.894 16.2255 19.817 16.0969C19.7397 15.9688 19.5339 15.892 19.2256 15.7383C18.917 15.5844 17.405 14.828 17.1222 14.7252C16.8393 14.6228 16.6337 14.5716 16.428 14.8795C16.2222 15.1869 15.6163 15.8979 15.4363 16.1031C15.2565 16.3085 15.0764 16.3342 14.7679 16.1804C14.4593 16.0261 13.4759 15.6957 12.2974 14.6484C11.3801 13.8333 10.7436 12.7938 10.5635 12.4861C10.3837 12.1785 10.5444 12.0121 10.6991 11.8586C10.8377 11.721 11.0249 11.5327 11.1792 11.3533C11.3333 11.1737 11.3772 11.0456 11.4802 10.8404C11.583 10.6352 11.5315 10.4556 11.4544 10.3019C11.3772 10.148 10.7852 8.62761 10.5108 8.01952H10.511C10.2799 7.50742 10.0366 7.49011 9.8168 7.48105V7.48105Z" fill="white"/>
</svg>
